<svg 
 xmlns="http://www.w3.org/2000/svg"
 xmlns:xlink="http://www.w3.org/1999/xlink"
 width="22px" height="23px">
<defs>
<filter id="Filter_0">
    <feFlood flood-color="rgb(255, 255, 255)" flood-opacity="1" result="floodOut" />
    <feComposite operator="atop" in="floodOut" in2="SourceGraphic" result="compOut" />
    <feBlend mode="normal" in="compOut" in2="SourceGraphic" />
</filter>

</defs>
<g filter="url(#Filter_0)">
<path fill-rule="evenodd"  fill="rgb(139, 26, 118)"
 d="M20.641,13.820 L19.499,13.820 C19.316,14.456 19.064,15.057 18.747,15.624 L19.556,16.429 C20.468,17.337 19.662,18.167 18.830,18.996 C17.997,19.824 17.164,20.627 16.252,19.719 L15.444,18.914 C14.875,19.230 14.272,19.481 13.632,19.662 L13.632,20.800 C13.632,22.085 12.473,22.104 11.296,22.104 C10.119,22.104 8.960,22.085 8.960,20.800 L8.960,19.662 C8.321,19.481 7.717,19.230 7.149,18.914 L6.340,19.719 C5.428,20.627 4.594,19.824 3.762,18.996 C2.930,18.167 2.124,17.337 3.036,16.429 L3.845,15.624 C3.527,15.057 3.275,14.456 3.092,13.820 L1.951,13.820 C0.661,13.820 0.642,12.665 0.642,11.493 C0.642,10.321 0.661,9.167 1.951,9.167 L3.092,9.167 C3.275,8.530 3.527,7.929 3.845,7.362 L3.036,6.558 C2.124,5.649 2.930,4.819 3.762,3.990 C4.594,3.162 5.428,2.359 6.340,3.267 L7.149,4.072 C7.717,3.756 8.321,3.506 8.960,3.324 L8.960,2.187 C8.960,0.902 10.119,0.883 11.296,0.883 C12.473,0.883 13.632,0.902 13.632,2.187 L13.632,3.324 C14.272,3.506 14.875,3.756 15.444,4.072 L16.252,3.267 C17.164,2.359 17.997,3.162 18.830,3.990 C19.662,4.819 20.468,5.649 19.556,6.558 L18.747,7.362 C19.064,7.929 19.316,8.530 19.499,9.167 L20.641,9.167 C21.932,9.167 21.950,10.321 21.950,11.493 C21.950,12.665 21.932,13.820 20.641,13.820 ZM11.298,4.750 C7.557,4.750 4.524,7.770 4.524,11.495 C4.524,15.221 7.557,18.241 11.298,18.241 C15.040,18.241 18.071,15.221 18.071,11.495 C18.071,7.770 15.040,4.750 11.298,4.750 ZM11.325,13.746 C10.074,13.746 9.062,12.737 9.062,11.493 C9.062,10.249 10.074,9.240 11.325,9.240 C12.574,9.240 13.587,10.249 13.587,11.493 C13.587,12.737 12.574,13.746 11.325,13.746 Z"/>
</g>
</svg>