<?xml version="1.0" standalone="no"?>
<!DOCTYPE svg PUBLIC "-//W3C//DTD SVG 20010904//EN"
 "http://www.w3.org/TR/2001/REC-SVG-20010904/DTD/svg10.dtd">
<svg version="1.0" xmlns="http://www.w3.org/2000/svg"
 width="474.000000pt" height="426.000000pt" viewBox="0 0 474.000000 426.000000"
 preserveAspectRatio="xMidYMid meet">

<g transform="translate(0.000000,426.000000) scale(0.100000,-0.100000)"
fill="#FFFFFF" stroke="none">
<path d="M890 3941 c-157 -43 -393 -106 -525 -141 -132 -35 -242 -65 -245 -67
-2 -2 51 -59 119 -127 l123 -123 -45 -64 c-61 -89 -100 -162 -130 -244 -55
-148 -61 -188 -62 -380 0 -166 2 -188 27 -278 80 -285 257 -515 513 -665 68
-39 191 -92 248 -106 l27 -6 0 142 -1 143 -64 29 c-222 99 -389 294 -457 533
-29 102 -31 293 -4 398 19 73 91 232 125 275 l20 25 176 -175 c125 -125 178
-171 184 -162 4 7 43 144 86 305 96 359 194 726 201 750 4 12 0 17 -13 16 -10
0 -146 -36 -303 -78z"/>
<path d="M1486 3843 c-3 -4 -6 -67 -6 -140 l0 -134 57 -25 c298 -132 493 -429
493 -750 0 -89 -17 -184 -49 -276 -21 -60 -94 -192 -112 -204 -7 -4 -85 68
-185 167 -95 95 -176 171 -178 168 -5 -4 -51 -173 -183 -664 -25 -93 -60 -224
-78 -290 -18 -66 -29 -121 -25 -123 5 -2 221 54 482 124 260 70 500 134 533
142 33 8 62 17 65 19 2 2 -51 59 -119 127 l-123 123 46 63 c187 253 249 609
160 918 -87 304 -312 567 -599 697 -84 38 -170 66 -179 58z"/>
<path d="M2400 3708 c45 -60 117 -170 131 -202 l12 -26 429 0 428 0 0 -267 0
-268 135 135 135 135 0 267 0 268 -651 0 -651 0 32 -42z"/>
<path d="M3368 2333 l-867 -868 -96 -284 c-53 -155 -94 -285 -92 -288 3 -2
131 38 286 89 l281 93 872 872 873 873 -190 190 c-104 104 -192 190 -195 190
-3 0 -395 -390 -872 -867z"/>
<path d="M3532 1147 l-132 -132 0 -273 0 -272 -1095 0 -1095 0 -2 342 -3 343
-57 7 c-54 7 -169 56 -183 78 -22 35 -25 -27 -25 -515 l0 -525 1365 0 1365 0
0 540 c0 297 -1 540 -3 540 -1 0 -62 -60 -135 -133z"/>
</g>
</svg>
