<?xml version="1.0" encoding="UTF-8"?><svg id="uuid-a1e58d54-1343-4da1-af02-14fdf9159a01" xmlns="http://www.w3.org/2000/svg" viewBox="0 0 20 20"><defs><style>.uuid-61f57520-990f-466f-9595-9127a1110ed2{fill:#ffffff;}.uuid-61f57520-990f-466f-9595-9127a1110ed2,.uuid-aa8efa86-1d3c-427e-87fd-a6e48bf84cdd,.uuid-e60aa89e-77e2-4bcf-849b-d56e61743c24{stroke-width:0px;}.uuid-aa8efa86-1d3c-427e-87fd-a6e48bf84cdd{fill:#e10472;}.uuid-e60aa89e-77e2-4bcf-849b-d56e61743c24{fill:#ffffff;}</style></defs><g id="uuid-b2d9ecb7-80e2-415e-8730-a30938cb4b2c"><path class="uuid-61f57520-990f-466f-9595-9127a1110ed2" d="M10,0C4.49,0,0,4.49,0,10s4.49,10,10,10,10-4.49,10-10S15.51,0,10,0ZM10,19.1C4.98,19.1.9,15.02.9,10S4.98.9,10,.9s9.1,4.08,9.1,9.1-4.08,9.1-9.1,9.1Z"/><path class="uuid-e60aa89e-77e2-4bcf-849b-d56e61743c24" d="M10.96,8.72l4.2-.17-3.08,2.87c-.18.75-.7,1.4-1.46,1.72-1.27.53-2.72-.07-3.25-1.34s.07-2.72,1.34-3.25c.76-.32,1.59-.23,2.25.17Z"/><path class="uuid-aa8efa86-1d3c-427e-87fd-a6e48bf84cdd" d="M1.92,12.03c-.12-.24-.12-.5-.14-.75-.37-3.61,1.68-7.04,5.07-8.48,3.32-1.41,7.27-.47,9.59,2.28.8.94,1.36,2.36,1.7,3.54h-1.78c-.75-1.83-1.97-3.56-3.75-4.46-2.66-1.36-6.05-.79-8.14,1.35-1.67,1.7-2.47,3.74-2.49,6.11,0,.13,0,.26-.02.39,0,0-.01.01-.04.03Z"/></g></svg>