<?xml version="1.0" encoding="UTF-8"?><svg id="uuid-b54a13f1-b1a8-4bc9-9d70-1d4128bef50a" xmlns="http://www.w3.org/2000/svg" viewBox="0 0 20 20"><defs><style>.uuid-797e4c2a-b67f-44fe-b941-375b6bf5aec3{fill:#ffffff;}.uuid-797e4c2a-b67f-44fe-b941-375b6bf5aec3,.uuid-2f735594-907e-4793-8c8d-2c5bc5ace753{stroke-width:0px;}.uuid-2f735594-907e-4793-8c8d-2c5bc5ace753{fill:#ffffff;}</style></defs><g id="uuid-13891e5b-6825-4788-914c-d1379e9b3116"><path class="uuid-797e4c2a-b67f-44fe-b941-375b6bf5aec3" d="M10,0C4.49,0,0,4.49,0,10s4.49,10,10,10,10-4.49,10-10S15.51,0,10,0ZM10,19.1C4.98,19.1.9,15.02.9,10S4.98.9,10,.9s9.1,4.08,9.1,9.1-4.08,9.1-9.1,9.1Z"/><path class="uuid-2f735594-907e-4793-8c8d-2c5bc5ace753" d="M1.91,12.05c-.12-.24-.12-.5-.14-.75-.37-3.62,1.68-7.05,5.08-8.5,3.32-1.42,7.28-.47,9.61,2.28.8.94,1.36,2.36,1.7,3.55h-1.79c-.75-1.84-1.97-3.56-3.76-4.47-2.66-1.36-6.06-.79-8.16,1.35-1.67,1.7-2.48,3.75-2.5,6.12,0,.13,0,.26-.02.39,0,0-.01.01-.04.03Z"/><path class="uuid-2f735594-907e-4793-8c8d-2c5bc5ace753" d="M8.4,9.63l-3.74,1.93,4.1.98c.53.56,1.3.88,2.13.78,1.37-.17,2.34-1.41,2.17-2.78s-1.41-2.34-2.78-2.17c-.82.1-1.5.59-1.88,1.26Z"/></g></svg>