<svg xmlns="http://www.w3.org/2000/svg" id="uuid-74a59c82-d4b2-4dbf-a60c-5dbe38ab782f" fill="#0094de" viewBox="0 0 13.13 10"><defs><style>.uuid-acc7d066-bc59-4ddc-a3ee-46503e196958{stroke-width:0px;}</style></defs><g id="uuid-fc6be35c-a6a5-43bf-a165-ba288b43e325"><path class="uuid-acc7d066-bc59-4ddc-a3ee-46503e196958" d="m.63,10c-.18,0-.33-.06-.45-.18-.12-.12-.18-.27-.18-.45v-1.13c0-.35.09-.68.27-.98.18-.3.42-.52.73-.68.65-.32,1.3-.57,1.97-.73.67-.16,1.34-.24,2.03-.24s1.36.08,2.03.24,1.32.4,1.97.73c.3.16.54.38.73.68s.27.62.27.98v1.13c0,.18-.06.33-.18.45-.12.12-.27.18-.45.18H.63Zm4.37-5c-.69,0-1.28-.24-1.77-.73-.49-.49-.73-1.08-.73-1.77s.24-1.28.73-1.77c.49-.49,1.08-.73,1.77-.73s1.28.24,1.77.73c.49.49.73,1.08.73,1.77s-.24,1.28-.73,1.77c-.49.49-1.08.73-1.77.73Zm5-.63c-.18,0-.33-.06-.45-.18-.12-.12-.18-.27-.18-.45s.06-.33.18-.45c.12-.12.27-.18.45-.18h2.5c.18,0,.33.06.45.18.12.12.18.27.18.45s-.06.33-.18.45c-.12.12-.27.18-.45.18h-2.5Z"/></g></svg>