<svg xmlns="http://www.w3.org/2000/svg" id="uuid-0ffbeb57-0736-4a4d-98a8-88a28454a6d5" fill="#fff" viewBox="0 0 11.61 10"><defs><style>.uuid-088f50a7-0e05-4edb-bb95-fddfa9473c71{stroke-width:0px;}</style></defs><g id="uuid-3e814b0c-0533-47b2-b803-d8c19a4332dc"><path class="uuid-088f50a7-0e05-4edb-bb95-fddfa9473c71" d="m.59,9.41c-.17,0-.31-.06-.42-.17s-.17-.25-.17-.42v-1.06c0-.32.08-.63.25-.91.17-.28.4-.5.69-.65.5-.25,1.06-.47,1.69-.65s1.32-.26,2.07-.26h.21c.06,0,.12,0,.18.03-.08.18-.14.36-.2.55s-.1.39-.12.6c-.05.35-.06.65-.04.89.02.24.07.53.16.87.06.21.14.41.24.61.1.2.21.39.32.57H.59Zm4.12-4.71c-.65,0-1.2-.23-1.66-.69-.46-.46-.69-1.01-.69-1.66s.23-1.2.69-1.66c.46-.46,1.01-.69,1.66-.69s1.2.23,1.66.69c.46.46.69,1.01.69,1.66s-.23,1.2-.69,1.66c-.46.46-1.01.69-1.66.69Zm3.35,4.41c-.12-.05-.23-.1-.33-.15-.1-.05-.21-.12-.32-.2l-.63.19c-.07.02-.13.02-.19,0-.06-.02-.11-.07-.15-.12l-.35-.59c-.04-.06-.05-.12-.04-.19.02-.07.05-.13.11-.18l.49-.43c-.02-.14-.03-.26-.03-.38s0-.25.03-.38l-.49-.43c-.06-.05-.1-.11-.11-.18-.01-.07,0-.13.04-.19l.35-.59c.04-.06.09-.1.15-.13s.12-.03.19,0l.63.19c.11-.08.21-.14.32-.2.1-.05.21-.11.33-.15l.13-.65c.02-.07.05-.13.1-.17.05-.04.11-.07.18-.07h.71c.07,0,.13.02.18.07.05.04.08.1.1.17l.13.65c.12.05.23.1.33.16.1.06.21.13.32.22l.62-.22c.07-.03.13-.03.2,0,.06.03.12.07.15.13l.35.62c.04.06.05.12.04.19-.01.07-.04.13-.1.18l-.5.43c.02.12.03.24.03.37s-.01.25-.03.37l.49.43c.06.05.1.11.11.18.01.07,0,.13-.04.19l-.35.59c-.04.06-.09.1-.15.12-.06.02-.12.03-.19,0l-.63-.19c-.11.08-.21.14-.32.2-.1.05-.21.11-.33.15l-.13.65c-.02.07-.05.12-.1.17-.05.04-.11.07-.18.07h-.71c-.07,0-.13-.02-.18-.07-.05-.04-.08-.1-.1-.17l-.13-.65Zm.77-.88c.32,0,.6-.11.83-.35.23-.23.35-.51.35-.83s-.12-.6-.35-.83c-.23-.23-.51-.35-.83-.35s-.6.12-.83.35c-.23.23-.35.51-.35.83s.12.6.35.83c.23.23.51.35.83.35Z"/></g></svg>