<svg xmlns="http://www.w3.org/2000/svg" id="uuid-1a4d7a12-95ca-47e4-9de3-ef6e9de4b89d" fill="#0094de" viewBox="0 0 13.75 10"><defs><style>.uuid-29519c73-8b1f-45be-9ba6-3c9c4150f7d8{stroke-width:0px;}</style></defs><g id="uuid-5c00f300-a097-487f-aa0f-d737bac3a409"><path class="uuid-29519c73-8b1f-45be-9ba6-3c9c4150f7d8" d="m.63,10c-.18,0-.33-.06-.45-.18s-.18-.27-.18-.45v-1.13c0-.35.09-.68.27-.98.18-.3.42-.52.73-.68.65-.32,1.3-.57,1.97-.73.67-.16,1.34-.24,2.03-.24s1.36.08,2.03.24,1.32.4,1.97.73c.3.16.54.38.73.68s.27.62.27.98v1.13c0,.18-.06.33-.18.45s-.27.18-.45.18H.63Zm4.37-5c-.69,0-1.28-.24-1.77-.73-.49-.49-.73-1.08-.73-1.77s.24-1.28.73-1.77c.49-.49,1.08-.73,1.77-.73s1.28.24,1.77.73c.49.49.73,1.08.73,1.77s-.24,1.28-.73,1.77c-.49.49-1.08.73-1.77.73Zm6.25,1.25c-.18,0-.33-.06-.45-.18-.12-.12-.18-.27-.18-.45v-1.25h-1.25c-.18,0-.33-.06-.45-.18-.12-.12-.18-.27-.18-.45s.06-.33.18-.45c.12-.12.27-.18.45-.18h1.25v-1.25c0-.18.06-.33.18-.45.12-.12.27-.18.45-.18s.33.06.45.18c.12.12.18.27.18.45v1.25h1.25c.18,0,.33.06.45.18.12.12.18.27.18.45s-.06.33-.18.45c-.12.12-.27.18-.45.18h-1.25v1.25c0,.18-.06.33-.18.45-.12.12-.27.18-.45.18Z"/></g></svg>