<?xml version="1.0" encoding="UTF-8"?><svg id="uuid-0625fa6f-e57d-41ee-b973-a3933d86b230" xmlns="http://www.w3.org/2000/svg" viewBox="0 0 18.66 7.38"><defs><style>.uuid-0a64e545-ac35-4f43-b9f1-427a788b977e{fill:#3aaa35;}.uuid-0a64e545-ac35-4f43-b9f1-427a788b977e,.uuid-0f2681bc-96c5-4878-b2aa-79834c4876fe{stroke-width:0px;}.uuid-0f2681bc-96c5-4878-b2aa-79834c4876fe{fill:#fff;}</style></defs><g id="uuid-be291b61-51b0-42dc-93e6-61ff2530afd3">
    <path class="uuid-0a64e545-ac35-4f43-b9f1-427a788b977e" 
    d="M1.6,2.4006230529595016 A0.270404984423676,0.270404984423676 0 0 1 1.9838006230529595,2.173831775700935 L3.981308411214953,3.3165109034267912 A0.270404984423676,0.270404984423676 0 0 1 3.9638629283489095,3.7526479750778816 L1.9838006230529595,4.9127725856697815 A0.270404984423676,0.270404984423676 0 0 1 1.6,4.694704049844237 L 1.6,2.4006230529595016 Z"/>
    <path class="uuid-0f2681bc-96c5-4878-b2aa-79834c4876fe" d="M6.51,3.82v1.04h-.3v-2.72h1.01c.57,0,.87.25.87.82,0,.4-.16.68-.5.79l.52,1.1h-.33l-.49-1.04h-.77ZM7.21,2.41h-.7v1.14h.71c.41,0,.55-.24.55-.59,0-.37-.18-.56-.56-.56Z"/><path class="uuid-0f2681bc-96c5-4878-b2aa-79834c4876fe" d="M10.08,2.9v1.96h-.29v-.14s-.29.18-.58.18c-.55,0-.66-.26-.66-.98v-1.02h.29v1.02c0,.54.05.72.41.72.29,0,.54-.15.54-.15v-1.59h.29Z"/><path class="uuid-0f2681bc-96c5-4878-b2aa-79834c4876fe" d="M10.64,4.86v-1.96h.29v.14s.32-.18.61-.18c.54,0,.66.27.66.97v1.04h-.29v-1.03c0-.52-.06-.71-.42-.71-.28,0-.55.15-.55.15v1.59h-.29Z"/><path class="uuid-0f2681bc-96c5-4878-b2aa-79834c4876fe" d="M17.23.28c.63,0,1.15.51,1.15,1.15v4.52c0,.63-.51,1.15-1.15,1.15H1.43c-.63,0-1.15-.51-1.15-1.15V1.43C.28.8.8.28,1.43.28h15.8M17.23,0H1.43C.64,0,0,.64,0,1.43v4.52c0,.79.64,1.43,1.43,1.43h15.8c.79,0,1.43-.64,1.43-1.43V1.43c0-.79-.64-1.43-1.43-1.43h0Z"/></g></svg>