<?xml version="1.0" encoding="UTF-8"?><svg id="uuid-76d1d37f-2ff7-4903-bf4a-e18676230120" xmlns="http://www.w3.org/2000/svg" viewBox="0 0 18.66 7.38"><defs><style>.uuid-3286e363-1a1a-48ff-be6e-71400ed3303d{fill:#e10472;}.uuid-3286e363-1a1a-48ff-be6e-71400ed3303d,.uuid-b4bb0d50-f9e0-4766-9c74-c2ca13ff5925{stroke-width:0px;}.uuid-b4bb0d50-f9e0-4766-9c74-c2ca13ff5925{fill:#fff;}</style></defs><g id="uuid-b30c5f15-737d-40c1-a0f5-f5df085668bb"><path class="uuid-b4bb0d50-f9e0-4766-9c74-c2ca13ff5925" d="M17.23.28c.63,0,1.15.51,1.15,1.15v4.52c0,.63-.51,1.15-1.15,1.15H1.43c-.63,0-1.15-.51-1.15-1.15V1.43C.28.8.8.28,1.43.28h15.8M17.23,0H1.43C.64,0,0,.64,0,1.43v4.52c0,.79.64,1.43,1.43,1.43h15.8c.79,0,1.43-.64,1.43-1.43V1.43c0-.79-.64-1.43-1.43-1.43h0Z"/><path class="uuid-b4bb0d50-f9e0-4766-9c74-c2ca13ff5925" d="M7.97,2.5s-.57-.06-.81-.06c-.4,0-.61.13-.61.43,0,.34.2.4.69.5.56.12.81.25.81.7,0,.58-.34.8-.9.8-.33,0-.9-.08-.9-.08l.03-.24s.56.07.85.07c.4,0,.61-.16.61-.52,0-.29-.17-.38-.63-.46-.58-.12-.88-.25-.88-.74s.36-.7.91-.7c.33,0,.85.08.85.08l-.03.25Z"/><path class="uuid-b4bb0d50-f9e0-4766-9c74-c2ca13ff5925" d="M8.92,3.19v.9c0,.41.03.53.29.53.11,0,.36-.02.36-.02l.02.23s-.27.04-.42.04c-.42,0-.56-.15-.56-.69v-.99h-.29v-.25h.29v-.58h.3v.58h.65v.25h-.65Z"/><path class="uuid-b4bb0d50-f9e0-4766-9c74-c2ca13ff5925" d="M11.61,3.86c0,.69-.18,1-.88,1s-.88-.32-.88-1c0-.65.23-.96.88-.96s.88.31.88.96ZM11.29,3.86c0-.52-.12-.71-.56-.71s-.56.19-.56.71.08.76.56.76.56-.22.56-.76Z"/><path class="uuid-b4bb0d50-f9e0-4766-9c74-c2ca13ff5925" d="M12.11,2.94h.3v.14s.31-.17.61-.17c.51,0,.74.29.74.96,0,.74-.26,1-.89,1-.19,0-.4-.03-.46-.04v.84h-.31v-2.72ZM12.41,3.31v1.27c.05,0,.27.04.44.04.45,0,.6-.21.6-.76s-.18-.71-.47-.71c-.28,0-.56.15-.56.15Z"/><rect class="uuid-3286e363-1a1a-48ff-be6e-71400ed3303d" x="1.58" y="2.14" width="2.76" height="2.76"/></g></svg>