<?xml version="1.0" encoding="UTF-8"?><svg id="uuid-22f7143a-97ea-4c6c-8a67-18b59100099a" xmlns="http://www.w3.org/2000/svg" viewBox="0 0 21.98 21.98"><defs><style>.uuid-3eb13eca-aedb-4446-81d2-15da403787fe{fill:#000;}.uuid-3eb13eca-aedb-4446-81d2-15da403787fe,.uuid-95a73940-a410-435a-b7c4-11bc67096506{stroke-width:0px;}.uuid-aa573401-5b47-4093-a4c8-82ee64e63788{opacity:.6;}.uuid-95a73940-a410-435a-b7c4-11bc67096506{fill:#fff;}</style></defs><g id="uuid-140a09ff-2311-4181-9e65-dc3651affa2e"><path class="uuid-3eb13eca-aedb-4446-81d2-15da403787fe" d="M3.43.5h15.13c1.62,0,2.93,1.31,2.93,2.93v15.13c0,1.62-1.31,2.93-2.93,2.93H3.43c-1.62,0-2.93-1.31-2.93-2.93V3.43C.5,1.81,1.81.5,3.43.5Z"/><path class="uuid-95a73940-a410-435a-b7c4-11bc67096506" d="M18.56.99c1.35,0,2.44,1.09,2.44,2.44v15.13c0,1.35-1.09,2.44-2.44,2.44H3.43c-1.35,0-2.44-1.09-2.44-2.44V3.43C.99,2.08,2.08.99,3.43.99h15.13M18.56,0H3.43C1.54,0,0,1.54,0,3.43v15.13c0,1.89,1.54,3.43,3.43,3.43h15.13c1.89,0,3.43-1.54,3.43-3.43V3.43c0-1.89-1.54-3.43-3.43-3.43h0Z"/><g class="uuid-aa573401-5b47-4093-a4c8-82ee64e63788"><rect class="uuid-95a73940-a410-435a-b7c4-11bc67096506" x="3.5" y="12.38" width="6.9" height="6.09" rx=".81" ry=".81"/></g><g class="uuid-aa573401-5b47-4093-a4c8-82ee64e63788"><rect class="uuid-95a73940-a410-435a-b7c4-11bc67096506" x="11.43" y="12.38" width="7.06" height="6.09" rx=".81" ry=".81"/></g><g class="uuid-aa573401-5b47-4093-a4c8-82ee64e63788"><rect class="uuid-95a73940-a410-435a-b7c4-11bc67096506" x="3.5" y="3.5" width="14.99" height="7.5" rx=".85" ry=".85"/></g></g></svg>