<?xml version="1.0" encoding="UTF-8"?><svg id="uuid-0966d901-da09-455e-82e4-c66ac81cc7c3" xmlns="http://www.w3.org/2000/svg" viewBox="0 0 21.98 21.98"><defs><style>.uuid-99d54f55-3e20-4fcd-80a5-8bb0565cf587{fill:#000;}.uuid-99d54f55-3e20-4fcd-80a5-8bb0565cf587,.uuid-a9d52846-eec0-4273-837c-3ac6d3c935ba{stroke-width:0px;}.uuid-33ea8d42-eeba-4f19-aa69-a59adb5085a5{opacity:.6;}.uuid-a9d52846-eec0-4273-837c-3ac6d3c935ba{fill:#fff;}</style></defs><g id="uuid-f9516602-11a0-478d-9cd7-8166dd682487"><rect class="uuid-99d54f55-3e20-4fcd-80a5-8bb0565cf587" x=".5" y=".5" width="20.99" height="20.99" rx="2.93" ry="2.93"/><path class="uuid-a9d52846-eec0-4273-837c-3ac6d3c935ba" d="M18.56.99c1.35,0,2.44,1.09,2.44,2.44v15.13c0,1.35-1.09,2.44-2.44,2.44H3.43c-1.35,0-2.44-1.09-2.44-2.44V3.43C.99,2.08,2.08.99,3.43.99h15.13M18.56,0H3.43C1.54,0,0,1.54,0,3.43v15.13c0,1.89,1.54,3.43,3.43,3.43h15.13c1.89,0,3.43-1.54,3.43-3.43V3.43c0-1.89-1.54-3.43-3.43-3.43h0Z"/><g class="uuid-33ea8d42-eeba-4f19-aa69-a59adb5085a5"><rect class="uuid-a9d52846-eec0-4273-837c-3ac6d3c935ba" x="3.44" y="3.44" width="15.1" height="15.1" rx="1.58" ry="1.58"/></g></g></svg>