<?xml version="1.0" encoding="UTF-8"?><svg id="uuid-1649f1af-5407-4907-ae72-a28d0c303e9f" xmlns="http://www.w3.org/2000/svg" fill="#0094de" viewBox="0 0 10 10"><defs><style>.uuid-9428e7a9-69e5-402a-9b00-ca1a8c9084c7{stroke-width:0px;}</style></defs><g id="uuid-c1d42f01-7d0a-411a-83ac-d4d4b0081782"><path class="uuid-9428e7a9-69e5-402a-9b00-ca1a8c9084c7" d="m6.96,4.57l-1.04-1.01-2.72,2.64c-.06.05-.1.11-.13.18-.03.07-.04.14-.04.22v.49c0,.08.03.14.08.2s.12.08.21.08h.48c.08,0,.15-.01.22-.03.06-.02.12-.06.18-.12l2.76-2.66Z"/><path class="uuid-9428e7a9-69e5-402a-9b00-ca1a8c9084c7" d="m7.29,4.24l.51-.52s.07-.1.07-.16-.02-.12-.07-.16l-.68-.66s-.1-.07-.17-.07-.12.02-.17.07l-.53.49,1.04,1.01Z"/><path class="uuid-9428e7a9-69e5-402a-9b00-ca1a8c9084c7" d="m10,10H0V0h10v10Zm-9.09-.91h8.18V.91H.91v8.18Z"/></g></svg>