<?xml version="1.0" encoding="UTF-8"?><svg id="uuid-57b426b5-83b1-44b5-817c-b7ffa286776a" xmlns="http://www.w3.org/2000/svg" fill="#0094de" viewBox="0 0 10 10"><defs><style>.uuid-9d8eb9e3-a081-4097-8c2b-dfffcd4b0f29{stroke-width:0px;}</style></defs><g id="uuid-f70d5b8a-2a4d-4322-98f9-ed5c87f176aa"><path class="uuid-9d8eb9e3-a081-4097-8c2b-dfffcd4b0f29" d="m6.85,4.67c-.1-.09-.21-.14-.36-.14h-3.01c-.14,0-.26.05-.36.14-.1.09-.14.21-.14.35s.05.25.14.35c.1.09.21.14.36.14h3.01c.14,0,.26-.05.36-.14.1-.09.14-.21.14-.35s-.05-.25-.14-.35Z"/><path class="uuid-9d8eb9e3-a081-4097-8c2b-dfffcd4b0f29" d="m10,10H0V0h10v10Zm-9.09-.91h8.18V.91H.91v8.18Z"/></g></svg>