<?xml version="1.0" encoding="UTF-8"?><svg id="uuid-1de919ac-0dc8-4a7d-b259-2d9b7dd7a7f3" xmlns="http://www.w3.org/2000/svg" viewBox="0 0 10 10" fill="#0094de"><defs><style>.uuid-3e1299de-903f-4da1-be41-b7ff928f9371{stroke-width:0px;}</style></defs><g id="uuid-ac71d665-6947-4415-a687-e150dd3522e7"><path class="uuid-3e1299de-903f-4da1-be41-b7ff928f9371" d="m5.01,6.96c.14,0,.26-.05.36-.14.1-.09.14-.21.14-.35v-.97h1c.14,0,.26-.05.36-.14.1-.09.14-.21.14-.35s-.05-.25-.14-.35c-.1-.09-.21-.14-.36-.14h-1v-.97c0-.14-.05-.25-.14-.35-.1-.09-.21-.14-.36-.14s-.26.05-.36.14c-.1.09-.14.21-.14.35v.97h-1c-.14,0-.26.05-.36.14-.1.09-.14.21-.14.35s.05.25.14.35c.1.09.21.14.36.14h1v.97c0,.14.05.25.14.35.1.09.21.14.36.14Z"/><path class="uuid-3e1299de-903f-4da1-be41-b7ff928f9371" d="m10,10H0V0h10v10Zm-9.09-.91h8.18V.91H.91v8.18Z"/></g></svg>