<?xml version="1.0" encoding="UTF-8"?><svg id="uuid-52c2cf1d-e5a2-47c6-9736-0c288cdb08da" xmlns="http://www.w3.org/2000/svg" viewBox="0 0 18.66 7.38"><defs><style>.uuid-1dddfaaa-1367-4fdf-a27c-dcd4f8c00c3f{fill:#3aaa35;}.uuid-1dddfaaa-1367-4fdf-a27c-dcd4f8c00c3f,.uuid-e8693175-8ac2-4aef-8296-07c3644bf87e{stroke-width:0px;}.uuid-e8693175-8ac2-4aef-8296-07c3644bf87e{fill:#fff;}</style></defs><g id="uuid-0d34bc84-5cf5-43a1-ab04-bac5265bbc2a"><path class="uuid-1dddfaaa-1367-4fdf-a27c-dcd4f8c00c3f" d="M1.97,4.82c-.09.05-.18.06-.26.01-.09-.05-.13-.12-.13-.23v-1.86c0-.1.04-.18.13-.23.09-.05.18-.04.26.01l1.46.93c.08.05.12.12.12.22s-.04.17-.12.21l-1.46.93Z"/><path class="uuid-e8693175-8ac2-4aef-8296-07c3644bf87e" d="M5.51,3.82v1.04h-.3v-2.72h1.01c.57,0,.87.25.87.82,0,.4-.16.68-.5.79l.52,1.1h-.33l-.49-1.04h-.77ZM6.21,2.41h-.7v1.14h.71c.41,0,.55-.24.55-.59,0-.37-.18-.56-.56-.56Z"/><path class="uuid-e8693175-8ac2-4aef-8296-07c3644bf87e" d="M9.08,2.9v1.96h-.29v-.14s-.29.18-.58.18c-.55,0-.66-.26-.66-.98v-1.02h.29v1.02c0,.54.05.72.41.72.29,0,.54-.15.54-.15v-1.59h.29Z"/><path class="uuid-e8693175-8ac2-4aef-8296-07c3644bf87e" d="M9.64,4.86v-1.96h.29v.14s.32-.18.61-.18c.54,0,.66.27.66.97v1.04h-.29v-1.03c0-.52-.06-.71-.42-.71-.28,0-.55.15-.55.15v1.59h-.29Z"/><path class="uuid-e8693175-8ac2-4aef-8296-07c3644bf87e" d="M17.23.18c.69,0,1.25.56,1.25,1.25v4.52c0,.69-.56,1.25-1.25,1.25H1.43c-.69,0-1.25-.56-1.25-1.25V1.43C.18.74.74.18,1.43.18h15.8M17.23,0H1.43C.64,0,0,.64,0,1.43v4.52c0,.79.64,1.43,1.43,1.43h15.8c.79,0,1.43-.64,1.43-1.43V1.43c0-.79-.64-1.43-1.43-1.43h0Z"/></g></svg>