<?xml version="1.0" encoding="UTF-8"?><svg id="uuid-9280279c-f784-477d-a081-734275e64da2" xmlns="http://www.w3.org/2000/svg" viewBox="0 0 58.29 51.88"><defs><style>.uuid-22b435c7-77de-4b59-be4e-6feacd6fbd21{stroke-width:0px;}</style></defs><g id="uuid-be5b7a84-3ca5-4928-8e14-897396855561"><path fill="white" class="uuid-22b435c7-77de-4b59-be4e-6feacd6fbd21" d="M.47,7.84C.02,6.79-.11,5.7.09,4.57c.2-1.12.72-2.11,1.58-2.96C2.52.76,3.49.25,4.59.07c1.1-.18,2.18-.04,3.23.41l47.62,21.15c1.9.85,2.85,2.29,2.85,4.31s-.95,3.46-2.85,4.31L7.82,51.41c-1.05.45-2.13.57-3.23.38-1.1-.2-2.08-.73-2.92-1.58s-1.38-1.84-1.58-2.96c-.2-1.12-.07-2.21.38-3.26l7.73-18.08L.47,7.84Z"/></g></svg>