<svg id="uuid-38cd2873-a716-4ba5-bb17-d57351022d6d" xmlns="http://www.w3.org/2000/svg" viewBox="0 0 8.5 8.5"><g id="uuid-cc2908d0-fa64-4501-b3d7-a7650ce5f186"><path d="m8.17,2.52c-.22-.5-.51-.94-.88-1.31s-.81-.67-1.31-.88c-.5-.22-1.04-.33-1.61-.33s-1.11.11-1.61.33c-.5.22-.94.51-1.31.88s-.67.81-.88,1.31c-.22.5-.33,1.04-.33,1.61,0,.31.03.61.1.91s.16.59.29.87L.02,7.96c-.05.16-.01.3.1.41.12.12.26.15.41.1l2.05-.6c.28.13.57.23.87.29.3.07.6.1.91.1.57,0,1.11-.11,1.61-.33.5-.22.94-.51,1.31-.88s.67-.81.88-1.31c.22-.5.33-1.04.33-1.61s-.11-1.11-.33-1.61Zm-1.46,3.96c-.64.64-1.42.96-2.35.96-.25,0-.49-.03-.73-.08-.24-.06-.47-.14-.69-.25-.06-.03-.11-.05-.17-.06-.06-.01-.12-.02-.18-.02-.03,0-.07,0-.11,0s-.08.01-.11.03l-1.32.39.39-1.32c.03-.1.04-.19.04-.29,0-.1-.03-.19-.08-.28-.11-.22-.19-.45-.25-.69-.06-.24-.08-.49-.08-.73,0-.92.32-1.71.96-2.35.64-.64,1.42-.96,2.35-.96s1.71.32,2.35.96c.64.64.96,1.42.96,2.35s-.32,1.71-.96,2.35Z" style="fill:#0094de; stroke-width:0px;"/><path d="m5.6,3.72h-.83v-.83c0-.12-.04-.22-.12-.29-.08-.08-.18-.12-.29-.12s-.22.04-.29.12c-.08.08-.12.18-.12.29v.83h-.83c-.12,0-.22.04-.29.12-.08.08-.12.18-.12.29s.04.22.12.29c.08.08.18.12.29.12h.83v.83c0,.12.04.22.12.29.08.08.18.12.29.12s.22-.04.29-.12c.08-.08.12-.18.12-.29v-.83h.83c.12,0,.22-.04.29-.12.08-.08.12-.18.12-.29s-.04-.22-.12-.29c-.08-.08-.18-.12-.29-.12Z" style="fill:#0094de; stroke-width:0px;"/></g></svg>
