<svg xmlns="http://www.w3.org/2000/svg" id="uuid-3dae081b-88cb-490e-bb92-0ef79f116627" fill="#0094de" viewBox="0 0 10 10"><defs><style>.uuid-0d22cefe-97be-4e64-800b-449a960fe40a{stroke-width:0px;}</style></defs><g id="uuid-461f69e2-d72d-4f98-b5ef-7d9862c42caf"><path class="uuid-0d22cefe-97be-4e64-800b-449a960fe40a" d="m9.62,2.97c-.26-.59-.6-1.11-1.04-1.54-.44-.44-.95-.78-1.54-1.04-.59-.26-1.22-.38-1.9-.38s-1.31.13-1.9.38c-.59.26-1.11.6-1.54,1.04s-.78.95-1.04,1.54c-.26.59-.38,1.22-.38,1.9,0,.36.04.72.12,1.07s.19.69.35,1.02L.03,9.37c-.06.19-.02.35.12.49.14.14.3.18.49.12l2.41-.71c.33.15.67.27,1.02.35.35.08.71.12,1.07.12.67,0,1.31-.13,1.9-.38.59-.26,1.11-.6,1.54-1.04.44-.44.78-.95,1.04-1.54.26-.59.38-1.22.38-1.9s-.13-1.31-.38-1.9Zm-1.72,4.66c-.75.75-1.67,1.13-2.76,1.13-.29,0-.58-.03-.86-.1-.28-.06-.56-.16-.81-.29-.06-.03-.13-.05-.2-.07-.07-.01-.14-.02-.21-.02-.04,0-.09,0-.13,0s-.09.01-.13.03l-1.56.46.46-1.56c.03-.11.05-.23.04-.35,0-.12-.03-.23-.09-.33-.13-.26-.23-.53-.29-.82-.07-.28-.1-.57-.1-.86,0-1.09.38-2.01,1.13-2.76.75-.75,1.67-1.13,2.76-1.13s2.01.38,2.76,1.13c.75.75,1.13,1.67,1.13,2.76s-.38,2.01-1.13,2.76Z"/></g></svg>