<svg xmlns="http://www.w3.org/2000/svg" id="uuid-d3f25e8e-8ff5-43bc-a4e8-959f17f7f707" fill="#0094de" viewBox="0 0 10 10"><defs><style>.uuid-69ed9590-320a-4fc6-8cc0-075812e98bb1{stroke-width:0px;}</style></defs><g id="uuid-a06506dd-dd00-4f50-aeb2-cccd6ed02a9f"><path class="uuid-69ed9590-320a-4fc6-8cc0-075812e98bb1" d="m.03,9.37l.71-2.41c-.15-.33-.27-.67-.35-1.02s-.12-.71-.12-1.07c0-.67.13-1.31.38-1.9.26-.59.6-1.11,1.04-1.55s.95-.78,1.54-1.04,1.22-.38,1.9-.38,1.31.13,1.9.38,1.11.6,1.54,1.04.78.95,1.04,1.55c.26.59.38,1.22.38,1.9s-.13,1.31-.38,1.9c-.26.59-.6,1.11-1.04,1.55s-.95.78-1.54,1.04-1.22.38-1.9.38c-.36,0-.72-.04-1.07-.12-.35-.08-.69-.19-1.02-.35l-2.41.71c-.19.06-.35.02-.49-.12-.14-.14-.18-.3-.12-.49Zm1.19-.58l1.56-.46s.09-.03.13-.03.09,0,.13,0c.07,0,.14,0,.21.02.07.01.14.03.2.07.26.13.53.23.81.29.28.07.57.1.86.1,1.09,0,2.01-.38,2.76-1.13.75-.75,1.13-1.67,1.13-2.76s-.38-2.01-1.13-2.76c-.75-.75-1.67-1.13-2.76-1.13s-2.01.38-2.76,1.13c-.75.75-1.13,1.67-1.13,2.76,0,.29.03.58.1.86.07.28.16.56.29.82.06.11.09.22.09.33,0,.12-.01.23-.04.35l-.46,1.56Zm3.92-1.97c.14,0,.25-.05.35-.14.09-.09.14-.21.14-.35v-.97h.97c.14,0,.25-.05.35-.14.09-.09.14-.21.14-.35s-.05-.25-.14-.35c-.09-.09-.21-.14-.35-.14h-.97v-.97c0-.14-.05-.25-.14-.35-.09-.09-.21-.14-.35-.14s-.25.05-.35.14c-.09.09-.14.21-.14.35v.97h-.97c-.14,0-.25.05-.35.14-.09.09-.14.21-.14.35s.05.25.14.35c.09.09.21.14.35.14h.97v.97c0,.14.05.25.14.35.09.09.21.14.35.14Z"/></g></svg>