<?xml version="1.0" encoding="utf-8"?>
<!-- Generator: Adobe Illustrator 28.3.0, SVG Export Plug-In . SVG Version: 6.00 Build 0)  -->
<svg version="1.1" id="Ebene_1" xmlns="http://www.w3.org/2000/svg" xmlns:xlink="http://www.w3.org/1999/xlink" x="0px" y="0px"
	 viewBox="0 0 24 24" style="enable-background:new 0 0 24 24;" xml:space="preserve">
<path fill="white" d="M4.2,21c-0.4,0.1-0.7,0-0.9-0.3S2.9,20.2,3,19.8L4,15L8.9,20L4.2,21z M8.9,20L4,15L15.4,3.6C15.8,3.2,16.3,3,16.9,3
	s1,0.2,1.4,0.6l2.1,2.1C20.8,6.1,21,6.6,21,7.1s-0.2,1-0.6,1.4L8.9,20z M16.9,5L6.5,15.3l2.1,2.1L19,7.1L16.9,5z"/>
</svg>
