<?xml version="1.0" encoding="utf-8"?>
<!-- Generator: Adobe Illustrator 28.3.0, SVG Export Plug-In . SVG Version: 6.00 Build 0)  -->
<svg version="1.1" id="Ebene_1" xmlns="http://www.w3.org/2000/svg" xmlns:xlink="http://www.w3.org/1999/xlink" x="0px" y="0px"
	 viewBox="0 0 24 24" style="enable-background:new 0 0 24 24;" xml:space="preserve">
<path fill="white" d="M6,23c-0.5,0-1-0.2-1.4-0.6S4,21.5,4,21V10c0-0.6,0.2-1,0.6-1.4S5.5,8,6,8h3v2H6v11h12V10h-3V8h3c0.6,0,1,0.2,1.4,0.6
	S20,9.4,20,10v11c0,0.5-0.2,1-0.6,1.4S18.6,23,18,23H6z M11,16V4.8L9.4,6.4L8,5l4-4l4,4l-1.4,1.4L13,4.8V16H11z"/>
</svg>
