<?xml version="1.0" encoding="UTF-8"?><svg id="uuid-e4957991-8ae6-4896-87a6-910a450472e6" xmlns="http://www.w3.org/2000/svg" viewBox="0 0 18.66 7.38"><defs><style>.uuid-c9433c0f-bb18-41bc-9261-e7dc957814d8{fill:#fff;stroke-width:0px;}</style></defs><g id="uuid-a98b9342-19f8-4d3c-ae4d-ea09ce715aa2"><path class="uuid-c9433c0f-bb18-41bc-9261-e7dc957814d8" d="M2.69,5.29c-.14,0-.27-.05-.37-.15s-.15-.22-.15-.37v-2.03c-.07,0-.13-.03-.18-.08-.05-.05-.08-.11-.08-.18s.03-.13.08-.18c.05-.05.11-.08.18-.08h.8c0-.07.03-.13.08-.18s.11-.08.18-.08h.65c.07,0,.13.03.18.08s.08.11.08.18h.8c.07,0,.13.03.18.08.05.05.08.11.08.18s-.03.13-.08.18-.11.08-.18.08v2.03c0,.14-.05.27-.15.37-.1.1-.22.15-.37.15h-1.73ZM2.69,2.74v2.03h1.73v-2.03h-1.73ZM2.69,4.77v-2.03,2.03ZM2.99,4.28c0,.06.02.11.06.15.04.04.09.06.15.06s.11-.02.15-.06c.04-.04.06-.09.06-.15v-1.05c0-.06-.02-.11-.06-.15-.04-.04-.09-.06-.15-.06s-.11.02-.15.06c-.04.04-.06.09-.06.15v1.05ZM3.7,4.28c0,.06.02.11.06.15.04.04.09.06.15.06s.11-.02.15-.06c.04-.04.06-.09.06-.15v-1.05c0-.06-.02-.11-.06-.15-.04-.04-.09-.06-.15-.06s-.11.02-.15.06c-.04.04-.06.09-.06.15v1.05Z"/><path class="uuid-c9433c0f-bb18-41bc-9261-e7dc957814d8" d="M6.51,4.86v-2.72h.97c.79,0,1.01.55,1.01,1.32s-.2,1.4-1.01,1.4h-.97ZM7.48,2.41h-.67v2.18h.67c.57,0,.7-.54.7-1.13s-.13-1.05-.7-1.05Z"/><path class="uuid-c9433c0f-bb18-41bc-9261-e7dc957814d8" d="M10.44,4.6v.23s-.44.06-.76.06c-.59,0-.78-.34-.78-1.01,0-.75.32-1.03.82-1.03s.79.27.79.92l-.02.22h-1.3c0,.42.13.64.51.64.29,0,.72-.04.72-.04ZM10.22,3.76c0-.49-.15-.66-.49-.66s-.52.18-.53.66h1.02Z"/><path class="uuid-c9433c0f-bb18-41bc-9261-e7dc957814d8" d="M11,2.04h.29v2.82h-.29v-2.82Z"/><path class="uuid-c9433c0f-bb18-41bc-9261-e7dc957814d8" d="M13.33,4.6v.23s-.44.06-.76.06c-.59,0-.78-.34-.78-1.01,0-.75.32-1.03.82-1.03s.79.27.79.92l-.02.22h-1.3c0,.42.13.64.51.64.29,0,.72-.04.72-.04ZM13.11,3.76c0-.49-.15-.66-.49-.66s-.52.18-.53.66h1.02Z"/><path class="uuid-c9433c0f-bb18-41bc-9261-e7dc957814d8" d="M14.25,3.15v.94c0,.43.03.55.28.55.11,0,.35-.02.35-.02l.02.24s-.26.04-.4.04c-.4,0-.54-.15-.54-.72v-1.03h-.28v-.26h.28v-.6h.29v.6h.62v.26h-.62Z"/><path class="uuid-c9433c0f-bb18-41bc-9261-e7dc957814d8" d="M16.68,4.6v.23s-.44.06-.76.06c-.59,0-.78-.34-.78-1.01,0-.75.32-1.03.82-1.03s.79.27.79.92l-.02.22h-1.3c0,.42.13.64.51.64.29,0,.72-.04.72-.04ZM16.46,3.76c0-.49-.15-.66-.49-.66s-.52.18-.53.66h1.02Z"/><path class="uuid-c9433c0f-bb18-41bc-9261-e7dc957814d8" d="M17.23.28c.63,0,1.15.51,1.15,1.15v4.52c0,.63-.51,1.15-1.15,1.15H1.43c-.63,0-1.15-.51-1.15-1.15V1.43C.28.8.8.28,1.43.28h15.8M17.23,0H1.43C.64,0,0,.64,0,1.43v4.52c0,.79.64,1.43,1.43,1.43h15.8c.79,0,1.43-.64,1.43-1.43V1.43c0-.79-.64-1.43-1.43-1.43h0Z"/></g></svg>