<?xml version="1.0" encoding="UTF-8"?><svg id="uuid-c9f52373-a523-47b7-a6da-a20ee9e5311b" xmlns="http://www.w3.org/2000/svg" viewBox="0 0 20.61 20.61"><defs><style>.uuid-e64037fe-03f3-4bdb-ae50-6928aac5a6b8{fill:#000;}.uuid-e64037fe-03f3-4bdb-ae50-6928aac5a6b8,.uuid-52df4e15-dd88-4d88-8818-bdf7137d2f39{stroke-width:0px;}.uuid-52df4e15-dd88-4d88-8818-bdf7137d2f39{fill:#fff;}</style></defs><g id="uuid-68130817-e38e-4326-98c7-9cfc0df6667c"><path class="uuid-e64037fe-03f3-4bdb-ae50-6928aac5a6b8" d="M2.74.15h15.13c1.43,0,2.59,1.16,2.59,2.59v15.13c0,1.43-1.16,2.59-2.59,2.59H2.74c-1.43,0-2.59-1.16-2.59-2.59V2.74C.15,1.31,1.31.15,2.74.15Z"/><path class="uuid-52df4e15-dd88-4d88-8818-bdf7137d2f39" d="M17.87.3c1.35,0,2.44,1.09,2.44,2.44v15.13c0,1.35-1.09,2.44-2.44,2.44H2.74c-1.35,0-2.44-1.09-2.44-2.44V2.74C.3,1.4,1.4.3,2.74.3h15.13M17.87,0H2.74C1.23,0,0,1.23,0,2.74v15.13c0,1.51,1.23,2.74,2.74,2.74h15.13c1.51,0,2.74-1.23,2.74-2.74V2.74c0-1.51-1.23-2.74-2.74-2.74h0Z"/><rect class="uuid-52df4e15-dd88-4d88-8818-bdf7137d2f39" x="1.49" y="1.49" width="17.64" height="17.64" rx="1" ry="1"/></g></svg>