<?xml version="1.0" encoding="UTF-8"?><svg id="uuid-80f9c6cb-3fc8-4af2-b9ce-016d7125d1fa" xmlns="http://www.w3.org/2000/svg" viewBox="0 0 20.61 20.61"><defs><style>.uuid-fcf65d32-5b21-42fd-a33b-aa63f30298f8{fill:#000;}.uuid-fcf65d32-5b21-42fd-a33b-aa63f30298f8,.uuid-3ffbd9c5-2953-4d12-9e76-52d1514a8522{stroke-width:0px;}.uuid-3ffbd9c5-2953-4d12-9e76-52d1514a8522{fill:#fff;}</style></defs><g id="uuid-eba6ccd5-1d3f-432b-8552-de587b65270f"><path class="uuid-fcf65d32-5b21-42fd-a33b-aa63f30298f8" d="M2.74.15h15.13c1.43,0,2.59,1.16,2.59,2.59v15.13c0,1.43-1.16,2.59-2.59,2.59H2.74c-1.43,0-2.59-1.16-2.59-2.59V2.74C.15,1.31,1.31.15,2.74.15Z"/><path class="uuid-3ffbd9c5-2953-4d12-9e76-52d1514a8522" d="M17.87.3c1.35,0,2.44,1.09,2.44,2.44v15.13c0,1.35-1.09,2.44-2.44,2.44H2.74c-1.35,0-2.44-1.09-2.44-2.44V2.74C.3,1.4,1.4.3,2.74.3h15.13M17.87,0H2.74C1.23,0,0,1.23,0,2.74v15.13c0,1.51,1.23,2.74,2.74,2.74h15.13c1.51,0,2.74-1.23,2.74-2.74V2.74c0-1.51-1.23-2.74-2.74-2.74h0Z"/><rect class="uuid-3ffbd9c5-2953-4d12-9e76-52d1514a8522" x="1.49" y="11.3" width="8.12" height="7.82" rx="1" ry="1"/><rect class="uuid-3ffbd9c5-2953-4d12-9e76-52d1514a8522" x="10.82" y="11.3" width="8.31" height="7.82" rx="1" ry="1"/><rect class="uuid-3ffbd9c5-2953-4d12-9e76-52d1514a8522" x="1.49" y="1.49" width="17.64" height="8.82" rx="1" ry="1"/></g></svg>