<?xml version="1.0" encoding="UTF-8"?><svg id="uuid-b22f00e5-7337-47f8-8918-ba00ca41afcc" xmlns="http://www.w3.org/2000/svg" viewBox="0 0 18.66 7.38"><defs><style>.uuid-addf7be0-c291-4231-ad8c-b6aa05be2477{fill:#fff;stroke-width:0px;}</style></defs><g id="uuid-09ecd62b-3b05-46f2-a73f-4b2f719c19bb"><path class="uuid-addf7be0-c291-4231-ad8c-b6aa05be2477" d="M2.31,5.29c-.14,0-.27-.05-.37-.15s-.15-.22-.15-.37v-2.19c0-.14.05-.27.15-.37.1-.1.22-.15.37-.15h2.19c.14,0,.27.05.37.15.1.1.15.22.15.37v2.19c0,.14-.05.27-.15.37-.1.1-.22.15-.37.15h-2.19ZM4.5,4.77v-2.19h-.39v.87c0,.1-.04.17-.12.22-.08.05-.16.05-.25.01l-.34-.16-.34.16c-.09.04-.17.04-.25-.01-.08-.05-.12-.12-.12-.22v-.87h-.39v2.19h2.19ZM2.31,4.77v-2.19,2.19ZM2.71,4.61c-.07,0-.12-.02-.17-.07-.05-.05-.07-.1-.07-.17s.02-.12.07-.17.1-.07.17-.07h.46c.07,0,.12.02.17.07.05.05.07.1.07.17s-.02.12-.07.17c-.05.05-.1.07-.17.07h-.46ZM3.17,3.09l.06-.03c.05-.03.11-.04.17-.04s.12.01.17.04l.06.03v-.52h-.47v.52Z"/><path class="uuid-addf7be0-c291-4231-ad8c-b6aa05be2477" d="M7.89,2.43s-.55-.07-.77-.07c-.38,0-.59.14-.59.44,0,.35.19.41.66.52.54.12.78.26.78.73,0,.6-.33.84-.87.84-.32,0-.86-.09-.86-.09l.03-.25s.53.07.81.07c.38,0,.58-.17.58-.55,0-.31-.16-.39-.6-.48-.56-.12-.84-.26-.84-.77s.35-.73.88-.73c.32,0,.82.08.82.08l-.03.26Z"/><path class="uuid-addf7be0-c291-4231-ad8c-b6aa05be2477" d="M9.83,4.49c0,.11.1.16.23.17v.23c-.22,0-.36-.04-.48-.16,0,0-.35.16-.71.16s-.55-.2-.55-.6.2-.54.6-.58l.62-.06v-.17c0-.27-.12-.37-.35-.37-.27,0-.74.05-.74.05v-.22s.42-.09.76-.09c.44,0,.63.2.63.63v1.01ZM8.95,3.94c-.24.02-.33.14-.33.35,0,.23.1.36.3.36.29,0,.62-.12.62-.12v-.65l-.58.05Z"/><path class="uuid-addf7be0-c291-4231-ad8c-b6aa05be2477" d="M10.52,2.9l.46,1.71h.15l.48-1.71h.3l-.55,1.96h-.59l-.55-1.96h.31Z"/><path class="uuid-addf7be0-c291-4231-ad8c-b6aa05be2477" d="M13.69,4.6v.23s-.44.06-.76.06c-.59,0-.78-.34-.78-1.01,0-.75.32-1.03.82-1.03s.79.27.79.92l-.02.22h-1.3c0,.42.13.64.51.64.29,0,.72-.04.72-.04ZM13.47,3.76c0-.49-.15-.66-.49-.66s-.52.18-.53.66h1.02Z"/><path class="uuid-addf7be0-c291-4231-ad8c-b6aa05be2477" d="M17.23.18c.69,0,1.25.56,1.25,1.25v4.52c0,.69-.56,1.25-1.25,1.25H1.43c-.69,0-1.25-.56-1.25-1.25V1.43C.18.74.74.18,1.43.18h15.8M17.23,0H1.43C.64,0,0,.64,0,1.43v4.52c0,.79.64,1.43,1.43,1.43h15.8c.79,0,1.43-.64,1.43-1.43V1.43c0-.79-.64-1.43-1.43-1.43h0Z"/></g></svg>