
<svg width="1920px" height="1080px" id="Ebene_1" data-name="Ebene 1" xmlns="http://www.w3.org/2000/svg" viewBox="0 0 1280 720">
  <defs>
    <style>
      .cls-1 {
        opacity: .5;
      }

      .cls-2, .cls-3 {
        stroke-width: 0px;
      }

      .cls-3 {
        fill: #fff;
      }
    </style>
  </defs>
  <rect class="cls-2" width="1280" height="720"/>
  <g class="cls-1">
    <path class="cls-3" d="m502.26,155.24c-3.45-3.44-7.57-5.17-12.37-5.17s-8.93,1.73-12.37,5.17c-3.45,3.45-5.23,7.57-5.35,12.37-.13,4.8,1.54,8.93,4.99,12.37l10.21,10.24c-5.08,7.68-7.62,16.32-7.62,25.95v168.39c0,13.05,4.49,24.07,13.48,33.05,8.98,8.99,20,13.48,33.05,13.48h168.39c9.62,0,18.18-2.44,25.68-7.29l38.95,39.05c3.45,3.45,7.63,5.23,12.56,5.35,4.92.13,9.1-1.53,12.55-4.98,3.45-3.45,5.23-7.63,5.36-12.55.12-4.92-1.54-9.11-4.99-12.56L502.26,155.24Zm24,229.32v-155.34l85.71,85.93c-.5,0-1-.02-1.51-.02-19.2,0-34.78,3.63-46.71,10.89-11.94,7.26-17.91,16.68-17.91,28.25v10.71h115.84l19.52,19.57h-154.93Z"/>
    <path class="cls-3" d="m793.07,236.48c-4.8-1.97-9.05-1.11-12.74,2.58l-39.14,39.14v-62.04c0-13.05-4.5-24.06-13.48-33.05-8.99-8.98-20-13.48-33.05-13.48h-136.63l46.53,46.53h90.11v90.1l46.53,46.53v-30.28l39.14,39.14c3.69,3.69,7.94,4.56,12.74,2.59,4.8-1.97,7.2-5.54,7.2-10.71v-106.35c0-5.17-2.4-8.74-7.2-10.71Z"/>
  </g>
  <g>
    <path class="cls-3" d="m365.37,516.83h11.18l7.87,26.88h.48v-26.88h6.62v32.64h-10.9l-8.16-26.88h-.48v26.88h-6.62v-32.64Z"/>
    <path class="cls-3" d="m418.61,537.42c0,7.39-2.69,12.62-11.04,12.62s-11.04-5.23-11.04-12.62,2.69-12.53,11.04-12.53,11.04,5.14,11.04,12.53Zm-6.53,0c0-4.66-.96-7.06-4.51-7.06s-4.51,2.4-4.51,7.06.96,7.15,4.51,7.15,4.51-2.5,4.51-7.15Z"/>
    <path class="cls-3" d="m452.25,542.94c.1,1.44.29,2.02,1.58,2.26l-.19,4.85c-3.22,0-4.85-.34-6.86-1.68,0,0-3.46,1.68-7.06,1.68-5.04,0-7.44-2.78-7.44-7.87,0-5.42,3.12-6.96,8.4-7.34l5.14-.38v-1.49c0-2.06-.91-2.59-2.83-2.59-3.17,0-9.02.38-9.02.38l-.19-4.46s5.14-1.39,9.75-1.39c6.24,0,8.74,2.45,8.74,8.06v9.99Zm-10.8-3.65c-1.68.14-2.69.96-2.69,2.69s.62,2.83,2.35,2.83c2.06,0,4.71-.77,4.71-.77v-5.14l-4.37.38Z"/>
    <path class="cls-3" d="m462.57,525.47l3.84,18.53h1.34l4.03-18.53h6.53l-5.76,24h-10.95l-5.76-24h6.72Z"/>
    <path class="cls-3" d="m500.11,542.94c.1,1.44.29,2.02,1.58,2.26l-.19,4.85c-3.22,0-4.85-.34-6.86-1.68,0,0-3.46,1.68-7.06,1.68-5.04,0-7.44-2.78-7.44-7.87,0-5.42,3.12-6.96,8.4-7.34l5.14-.38v-1.49c0-2.06-.91-2.59-2.83-2.59-3.17,0-9.02.38-9.02.38l-.19-4.46s5.14-1.39,9.75-1.39c6.24,0,8.74,2.45,8.74,8.06v9.99Zm-10.8-3.65c-1.68.14-2.69.96-2.69,2.69s.62,2.83,2.35,2.83c2.06,0,4.71-.77,4.71-.77v-5.14l-4.37.38Z"/>
    <path class="cls-3" d="m506.25,515.87h6.43v6.53h-6.43v-6.53Zm0,9.6h6.43v24h-6.43v-24Z"/>
    <path class="cls-3" d="m518.92,515.87h6.43v33.6h-6.43v-33.6Z"/>
    <path class="cls-3" d="m549.98,542.94c.1,1.44.29,2.02,1.58,2.26l-.19,4.85c-3.22,0-4.85-.34-6.86-1.68,0,0-3.46,1.68-7.06,1.68-5.04,0-7.44-2.78-7.44-7.87,0-5.42,3.12-6.96,8.4-7.34l5.14-.38v-1.49c0-2.06-.91-2.59-2.83-2.59-3.17,0-9.02.38-9.02.38l-.19-4.46s5.14-1.39,9.75-1.39c6.24,0,8.74,2.45,8.74,8.06v9.99Zm-10.8-3.65c-1.68.14-2.69.96-2.69,2.69s.62,2.83,2.35,2.83c2.06,0,4.71-.77,4.71-.77v-5.14l-4.37.38Z"/>
    <path class="cls-3" d="m577.44,537.13c0,10.32-3.5,12.91-11.95,12.91-2.3,0-9.36-.67-9.36-.67v-33.51h6.43v10.32s3.07-1.3,5.18-1.3c6.53,0,9.7,3.02,9.7,12.24Zm-6.53,0c0-4.85-1.54-6.48-4.03-6.48-1.92,0-4.32.62-4.32.62v12.82s2.21.19,2.93.19c4.42,0,5.42-1.97,5.42-7.15Z"/>
    <path class="cls-3" d="m582.52,515.87h6.43v33.6h-6.43v-33.6Z"/>
    <path class="cls-3" d="m614.2,543.95l.1,4.75s-5.52,1.34-9.99,1.34c-7.25,0-10.32-3.6-10.32-12.24s3.6-12.91,10.61-12.91,10.46,3.6,10.46,10.85l-.48,4.46h-14.11c.05,2.88,1.39,4.18,4.85,4.18,3.94,0,8.88-.43,8.88-.43Zm-5.47-8.64c0-3.89-1.1-5.14-4.13-5.14s-4.13,1.49-4.18,5.14h8.3Z"/>
    <path class="cls-3" d="m646.89,525.95l-.19,5.09s-3.79-.38-5.62-.38c-4.61,0-5.47,1.78-5.47,6.58,0,5.38.91,7.06,5.52,7.06,1.82,0,5.57-.38,5.57-.38l.19,5.14s-5.14,1.01-7.83,1.01c-7.15,0-9.98-3.79-9.98-12.82,0-8.5,2.98-12.34,10.13-12.34,2.78,0,7.68,1.06,7.68,1.06Z"/>
    <path class="cls-3" d="m670.03,542.94c.1,1.44.29,2.02,1.58,2.26l-.19,4.85c-3.22,0-4.85-.34-6.86-1.68,0,0-3.46,1.68-7.06,1.68-5.04,0-7.44-2.78-7.44-7.87,0-5.42,3.12-6.96,8.4-7.34l5.14-.38v-1.49c0-2.06-.91-2.59-2.83-2.59-3.17,0-9.02.38-9.02.38l-.19-4.46s5.14-1.39,9.75-1.39c6.24,0,8.74,2.45,8.74,8.06v9.99Zm-10.8-3.65c-1.68.14-2.69.96-2.69,2.69s.62,2.83,2.35,2.83c2.06,0,4.71-.77,4.71-.77v-5.14l-4.37.38Z"/>
    <path class="cls-3" d="m676.17,549.47v-24h6.38v1.34s3.31-1.92,5.67-1.92c2.69,0,4.56.72,6,2.26,0,0,4.42-2.26,8.07-2.26,6.53,0,8.45,3.84,8.45,11.57v13.01h-6.43v-12.82c0-3.65-.48-6-3.36-6-1.92,0-4.46.91-4.46.91,0,0,.19,3.6.19,5.47v12.43h-6.43v-12.34c0-4.32-.38-6.48-3.36-6.48-2.11,0-4.27.86-4.27.86v17.95h-6.43Z"/>
    <path class="cls-3" d="m735.45,543.95l.1,4.75s-5.52,1.34-9.99,1.34c-7.25,0-10.32-3.6-10.32-12.24s3.6-12.91,10.61-12.91,10.46,3.6,10.46,10.85l-.48,4.46h-14.11c.05,2.88,1.39,4.18,4.85,4.18,3.94,0,8.88-.43,8.88-.43Zm-5.47-8.64c0-3.89-1.1-5.14-4.13-5.14s-4.13,1.49-4.18,5.14h8.3Z"/>
    <path class="cls-3" d="m740.92,525.47h6.38v2.54s4.03-2.4,7.68-3.12v6.48c-4.22.82-7.63,2.02-7.63,2.02v16.08h-6.43v-24Z"/>
    <path class="cls-3" d="m777.16,542.94c.1,1.44.29,2.02,1.58,2.26l-.19,4.85c-3.22,0-4.85-.34-6.86-1.68,0,0-3.46,1.68-7.06,1.68-5.04,0-7.44-2.78-7.44-7.87,0-5.42,3.12-6.96,8.4-7.34l5.14-.38v-1.49c0-2.06-.91-2.59-2.83-2.59-3.17,0-9.02.38-9.02.38l-.19-4.46s5.14-1.39,9.75-1.39c6.24,0,8.74,2.45,8.74,8.06v9.99Zm-10.8-3.65c-1.68.14-2.69.96-2.69,2.69s.62,2.83,2.35,2.83c2.06,0,4.71-.77,4.71-.77v-5.14l-4.37.38Z"/>
    <path class="cls-3" d="m793.86,515.87h6.43v6.53h-6.43v-6.53Zm0,9.6h6.43v24h-6.43v-24Z"/>
    <path class="cls-3" d="m806.24,549.47v-24h6.38v1.34s3.31-1.92,5.67-1.92c2.69,0,4.56.72,6,2.26,0,0,4.42-2.26,8.07-2.26,6.53,0,8.45,3.84,8.45,11.57v13.01h-6.43v-12.82c0-3.65-.48-6-3.36-6-1.92,0-4.46.91-4.46.91,0,0,.19,3.6.19,5.47v12.43h-6.43v-12.34c0-4.32-.38-6.48-3.36-6.48-2.11,0-4.27.86-4.27.86v17.95h-6.43Z"/>
    <path class="cls-3" d="m864.9,542.94c.1,1.44.29,2.02,1.58,2.26l-.19,4.85c-3.22,0-4.85-.34-6.86-1.68,0,0-3.46,1.68-7.06,1.68-5.04,0-7.44-2.78-7.44-7.87,0-5.42,3.12-6.96,8.4-7.34l5.14-.38v-1.49c0-2.06-.91-2.59-2.83-2.59-3.17,0-9.02.38-9.02.38l-.19-4.46s5.14-1.39,9.75-1.39c6.24,0,8.74,2.45,8.74,8.06v9.99Zm-10.8-3.65c-1.68.14-2.69.96-2.69,2.69s.62,2.83,2.35,2.83c2.06,0,4.71-.77,4.71-.77v-5.14l-4.37.38Z"/>
    <path class="cls-3" d="m869.84,553.84c0-2.21,1.06-3.84,3.46-5.71-1.06-.72-1.78-2.16-1.78-3.65,0-1.2,1.87-3.84,1.87-3.84-1.68-1.2-3.26-2.98-3.26-7.15,0-6.19,4.46-8.5,10.08-8.5,2.11,0,4.85.62,4.85.62l7.73-.24v5.14l-3.6-.29c.43.67,1.06,1.87,1.06,3.26,0,6.72-3.55,8.45-10.13,8.45-.53,0-1.54-.1-1.97-.19,0,0-.48,1.25-.48,1.87,0,1.25.58,1.54,4.66,1.58,8.16.05,10.46,1.87,10.46,7.25,0,5.86-5.18,8.06-11.38,8.06-7.01,0-11.57-1.3-11.57-6.67Zm7.63-3.41c-.82.82-1.3,1.54-1.3,2.74,0,1.39,1.68,2.06,5.28,2.06,3.12,0,4.85-.67,4.85-2.4,0-1.82-.96-2.02-4.51-2.06-1.34,0-4.32-.34-4.32-.34Zm6.43-16.95c0-2.26-1.06-3.5-3.65-3.5s-3.7,1.25-3.7,3.5,1.1,3.55,3.7,3.55,3.65-1.3,3.65-3.55Z"/>
    <path class="cls-3" d="m915.69,543.95l.1,4.75s-5.52,1.34-9.99,1.34c-7.25,0-10.32-3.6-10.32-12.24s3.6-12.91,10.61-12.91,10.46,3.6,10.46,10.85l-.48,4.46h-14.11c.05,2.88,1.39,4.18,4.85,4.18,3.94,0,8.88-.43,8.88-.43Zm-5.47-8.64c0-3.89-1.1-5.14-4.13-5.14s-4.13,1.49-4.18,5.14h8.3Z"/>
  </g>
</svg>