<!DOCTYPE svg PUBLIC "-//W3C//DTD SVG 1.1//EN" "http://www.w3.org/Graphics/SVG/1.1/DTD/svg11.dtd">
<!-- Uploaded to: SVG Repo, www.svgrepo.com, Transformed by: SVG Repo Mixer Tools -->
<svg fill="#ffffff" width="800px" height="800px" viewBox="0 0 32 32" id="icon" xmlns="http://www.w3.org/2000/svg">
<g id="SVGRepo_bgCarrier" stroke-width="0"/>
<g id="SVGRepo_tracerCarrier" stroke-linecap="round" stroke-linejoin="round"/>
<g id="SVGRepo_iconCarrier">
<defs>
<style>.cls-1{fill:none;}</style>
</defs>
<title>flash--off--filled</title>
<path d="M30,28.59,3.41,2,2,3.41,8.4,9.82,7,15.77A1,1,0,0,0,8,17h4.83L11,28.85a1,1,0,0,0,.6,1.07A1.09,1.09,0,0,0,12,30a1,1,0,0,0,.79-.39l6.68-8.73L28.59,30Z"/>
<path d="M22.53,16.87l3.26-4.26a1,1,0,0,0,.11-1A1,1,0,0,0,25,11H20.25L22,3.22a1,1,0,0,0-.2-.85A1,1,0,0,0,21,2H11a1,1,0,0,0-1,.77l-.3,1.3Z"/>
<rect id="_Transparent_Rectangle_" data-name="&lt;Transparent Rectangle&gt;" class="cls-1" width="32" height="32"/>
</g>
</svg>