<?xml version="1.0" encoding="UTF-8"?><svg id="uuid-2fbd7fd4-e3d1-40c9-a49f-949799689560" xmlns="http://www.w3.org/2000/svg" viewBox="0 0 313.22 186.99"><defs><style>.uuid-7339eab5-4f22-446d-9203-ffa9f3950a33{fill: #fdfdfd;stroke-width:0px;}</style></defs><g id="uuid-97381181-e474-4d5d-a65f-06ed3618e7a8"><path class="uuid-7339eab5-4f22-446d-9203-ffa9f3950a33" d="M132.97,159.15c40.91-2.02,68.2-35.13,64.61-72.76-2.92-30.6-28.67-58.04-64.59-58.64V.17c31.45-2.42,81.51,20.91,92.19,78.81h88.05v28.08h-88.08c-4.57,25.47-16.51,46.09-37.04,61.4-16.22,12.1-34.6,17.92-55.14,18.54v-27.84Z"/><path class="uuid-7339eab5-4f22-446d-9203-ffa9f3950a33" d="M0,107.1v-28.13h5.61c23.83,0,47.65-.06,71.48.07,3.27.02,4.81-.74,6.04-4.1,7.73-21.07,28.63-36.91,56.49-34.05,20.96,2.15,40.52,20.47,44.81,42.89,4.96,25.94-11.67,52.8-37.16,60.07-26.22,7.47-54.03-5.96-63.53-31.16-1.75-4.64-3.92-5.75-8.54-5.7-23.16.24-46.32.11-69.48.11-1.8,0-3.6,0-5.73,0ZM156.78,93.34c.05-13.86-10.31-24.39-24.06-24.47-13.8-.08-25.05,10.95-24.92,24.44.13,13.2,11.5,24.54,24.62,24.54,13.33,0,24.32-11.05,24.37-24.51Z"/></g></svg>