<?xml version="1.0" encoding="UTF-8"?><svg xmlns="http://www.w3.org/2000/svg" viewBox="0 0 12.64 16"><defs><style>.uuid-08731573-3572-4348-912f-b45be2e8e936{fill:#0094df;fill-rule:evenodd;stroke-width:0px;}</style></defs><path class="uuid-08731573-3572-4348-912f-b45be2e8e936" d="m.82,5.07l1.02,10.27c0,.37.31.66.68.66h7.58c.38,0,.68-.3.68-.66l1.02-10.27H.82Zm6.05,8.99h-1.07v-7.08h1.07v7.08h0Zm2,0h-1.07l1-7.08h1.07l-1,7.08h0Zm-4,0h-1.07l-1-7.08h1.07l1,7.08h0Z"/><path class="uuid-08731573-3572-4348-912f-b45be2e8e936" d="m11.92,2.11h-3.14V.71c0-.39-.46-.71-.86-.71h-3.1c-.4,0-.95.22-.95.62v1.4l-3.15.09c-.4,0-.73.32-.73.71v1.15h12.64v-1.15c0-.39-.32-.71-.73-.71h0Zm-7.13-.66c0-.31.35-.57.78-.57h1.56c.43,0,.78.25.78.57v.66h-3.13v-.66h0Z"/></svg>